<?xml version="1.0" encoding="utf-8"?>
<!-- Generator: Adobe Illustrator 16.0.0, SVG Export Plug-In . SVG Version: 6.00 Build 0)  -->
<!DOCTYPE svg PUBLIC "-//W3C//DTD SVG 1.1//EN" "http://www.w3.org/Graphics/SVG/1.1/DTD/svg11.dtd">
<svg version="1.1" id="圖層_1" xmlns="http://www.w3.org/2000/svg" xmlns:xlink="http://www.w3.org/1999/xlink" x="0px" y="0px"
	 width="667.979px" height="191px" viewBox="0 83.5 667.979 191" enable-background="new 0 83.5 667.979 191" xml:space="preserve">
<g>
	<g>
		<path fill="#009E9C" d="M111.633,176.689C111.568,176.721,111.698,176.666,111.633,176.689c0,0-0.022,0.389,1.137,1.19
			c7.233,5.826,11.045,11.436,11.002,22.893c-0.054,14.283-12.453,24.667-26.553,24.667v19.751
			c24.528,0,46.824-17.478,46.824-42.394c0-8.922-2.437-17.704-8.511-26.26c0.281-0.324,1.581-1.905,2.664-3.79
			c1.495-2.653,1.776-5.869,1.776-16.611v-46.563H77.068v37.099H57.003v20.391h40.553v-36.623h22.632v31.597
			C120.188,162.036,121.108,170.852,111.633,176.689"/>
		<path fill="#008FC7" d="M57.208,109.572h-5.836v0.021c-10.677,0.271-21.853,3.639-29.292,12.106
			c-7.852,8.934-8.598,16.86-8.598,29.941c0,8.923,0,93.538,0,93.538h63.899v-36.72H97.6v-20.628H57.035v37.012H33.819v-77.521
			c0,0-1.495-16.839,18.766-17.304l4.634-0.217L57.208,109.572z"/>
	</g>
	<g>
		<g>
			<path fill="#231815" d="M264.588,186.574c0,0.218,0,15.778,0,15.778l-62.45,0.055v-21.723h54.901
				C265.042,180.662,264.588,186.574,264.588,186.574 M252.46,195.01v-6.65h-39.016v6.65H252.46z"/>
			<path fill="#231815" d="M190.477,245.114v-38.236h77.458c1.776,0,3.779,1.095,3.779,1.095c2.902,1.396,4.787,4.169,4.938,7.341
				v29.8h-12.984v-2.621l-60.24-0.012v2.633H190.477 M263.667,220.74v-5.199H239.52v5.199H263.667 M227.608,220.77v-5.196h-24.126
				v5.196H227.608 M263.667,234.068v-5.187H239.52v5.187H263.667 M227.608,234.113v-5.199h-24.126v5.199H227.608z"/>
			<rect x="202.085" y="168.393" fill="#231815" width="62.503" height="8.154"/>
			<path fill="#231815" d="M185.701,178.583v-25.046h41.376v-6.485h12.508v6.074h32.659c0,0,8.349,0.629,8.349,7.602v17.856h-11.359
				v-14.337h-71.512v14.337H185.701z"/>
		</g>
		<g>
			<path fill="#231815" d="M397.65,183.857l7.917-26.141c1.17-4.396-2.816-8.5-6.921-8.5l-33.103,0.021v96.222l12.042-0.01v-17.401
				c0,0,3.606,5.371,5.534,8.055c3.877,0.154,6.226-0.985,9.54-2.403c7.895-3.799,13.298-11.856,14.391-20.184
				C407.894,202.07,404.299,192.195,397.65,183.857 M394.912,214.511c-1.636,4.429-5.978,8.859-10.451,10.104
				c-2.448,0.563-4.039,0.975-7.049,0.281v-63.758l15.386,0.011c-2.304,8.305-5.207,16.958-7.795,25.133
				c0.813,1.515,2.588,2.902,3.531,4.57C392.995,197.761,397.346,205.653,394.912,214.511z"/>
			<path fill="#231815" d="M361.407,191.881v-12.442h-17.283l0.012-9.442h16.904v-11.934h-16.894v-11.24h-13.081l0.011,11.24
				h-19.697v12.203h19.686l-0.011,9.248h-19.675v12.161h19.707v9.106H311.66v12.431l18.863,0.01
				c-0.682,13.949-11.782,22.721-11.782,22.721l7.126,9.506c17.575-9.811,18.387-32.128,18.387-32.128h17.152v-12.54h-17.271v-8.9
				H361.407z"/>
		</g>
		<g>
			<polygon fill="#231815" points="605.105,160.186 568.906,160.186 568.906,167.57 653.164,167.57 653.164,160.186 
				616.724,160.186 616.724,156.59 656.803,156.59 656.803,149.26 616.724,149.26 616.724,146.141 605.105,146.141 605.105,149.26 
				565.527,149.26 565.527,156.59 605.105,156.59 			"/>
			<path fill="#231815" d="M657.755,171.512c-1.354-0.996-4.495-0.855-4.495-0.855h-86.889v7.451h80.445c0,0,1.44-0.108,2.231,0.499
				c0.78,0.573,0.651,2.035,0.651,2.035v7.45h9.637v-13.373C659.336,174.718,659.401,172.67,657.755,171.512z"/>
			<polygon fill="#231815" points="566.48,192.888 566.48,200.143 651.756,200.143 651.756,192.888 616.693,192.888 
				616.693,189.163 642.432,189.163 642.432,181.637 575.208,181.637 575.208,189.163 605.105,189.163 605.105,192.888 			"/>
			<path fill="#231815" d="M563.989,211.491h71.925v5.446h-24.776v7.797h24.776c0,0,0.01,4.613,0,10.092
				c0,3.551-7.191,4.006-11.577,3.725l4.43,8.728c4.234,0,12.952-0.91,17.196-5.349c2.164-2.254,1.604-7.018,1.604-17.196h8.728
				v-7.797h-8.728v-5.446h11.77v-7.601h-95.347V211.491z"/>
			<path fill="#231815" d="M603.039,214.327h-32.586v27.788h9.845v-2.533h16.384v2.533h9.843v-24.169c0,0,0.185-1.917-0.965-2.868
				C604.63,214.274,603.039,214.327,603.039,214.327 M596.735,224.81v7.245h-16.438v-9.919h14.295c0,0,1.169,0.237,1.708,0.973
				C596.8,223.782,596.735,224.81,596.735,224.81z"/>
			<polygon fill="#231815" points="617.072,226.371 609.901,232.13 617.515,241.691 624.673,235.931 			"/>
		</g>
		<path fill="#231815" d="M484.085,191.826c-1.278,3.671-3.184,8.924-4.83,12.247c-11.587,23.455-27.688,34.479-37.857,40.825
			l-9.009-9.433c7.917-4.157,14.759-9.214,20.542-15.149c16.742-16.871,25.113-39.285,25.113-67.245v-5.198h12.939
			c0,0-0.205,3.054-0.334,5.198c-0.207,3.367-0.272,8.934-0.22,9.204c0.65,9.399,1.593,16.643,3.283,22.134
			c5.934,19.145,20.13,36.654,42.589,52.551l-10.71,8.261c-5.284-4.396-9.777-8.261-13.438-11.662
			C498.172,219.937,488.815,206.033,484.085,191.826z"/>
	</g>
</g>
</svg>
